<svg width="78" height="29" viewBox="0 0 78 29" fill="none" xmlns="http://www.w3.org/2000/svg">
<path d="M29.9601 2.55203L25.7841 27.5H18.1161L15.0201 8.45603L11.7441 27.5H4.2561L0.1521 2.55203H6.0561L8.5401 23.036L11.9961 2.55203H18.1881L21.4281 23.036L24.3441 2.55203H29.9601Z" fill="black"/>
<path d="M40.469 7.77203C43.397 7.77203 45.689 8.67203 47.345 10.472C49.001 12.248 49.829 14.744 49.829 17.96C49.829 20 49.445 21.788 48.677 23.324C47.933 24.836 46.853 26.012 45.437 26.852C44.045 27.692 42.389 28.112 40.469 28.112C37.565 28.112 35.273 27.224 33.593 25.448C31.937 23.648 31.109 21.14 31.109 17.924C31.109 15.884 31.481 14.108 32.225 12.596C32.993 11.06 34.073 9.87203 35.465 9.03203C36.881 8.19203 38.549 7.77203 40.469 7.77203ZM40.469 11.948C39.317 11.948 38.453 12.44 37.877 13.424C37.301 14.384 37.013 15.884 37.013 17.924C37.013 20.012 37.289 21.536 37.841 22.496C38.417 23.456 39.293 23.936 40.469 23.936C41.621 23.936 42.485 23.456 43.061 22.496C43.637 21.512 43.925 20 43.925 17.96C43.925 15.872 43.637 14.348 43.061 13.388C42.509 12.428 41.645 11.948 40.469 11.948Z" fill="black"/>
<path d="M58.2884 28.112C56.6324 28.112 55.3364 27.644 54.4004 26.708C53.4884 25.748 53.0324 24.392 53.0324 22.64V0.788026L58.7204 0.176025V22.424C58.7204 23.216 59.0444 23.612 59.6924 23.612C60.0284 23.612 60.3404 23.552 60.6284 23.432L61.7444 27.464C60.7124 27.896 59.5604 28.112 58.2884 28.112Z" fill="black"/>
<path d="M72.6479 4.38803C71.8319 4.38803 71.2439 4.58003 70.8839 4.96403C70.5239 5.34803 70.3439 5.99603 70.3439 6.90803V8.38403H74.8439L74.2319 12.344H70.3439V27.5H64.6559V12.344H61.7759V8.38403H64.6559V6.69203C64.6559 4.77203 65.2799 3.21203 66.5279 2.01203C67.7999 0.788026 69.6119 0.176025 71.9639 0.176025C73.8599 0.176025 75.5999 0.584026 77.1839 1.40003L75.6359 5.10803C74.6759 4.62803 73.6799 4.38803 72.6479 4.38803Z" fill="black"/>
</svg>
